<svg width="65" height="64" viewBox="0 0 65 64" fill="none" xmlns="http://www.w3.org/2000/svg">
<rect x="1.05113" y="4.48267" width="41.8848" height="55.0347" rx="6" fill="url(#paint0_linear_1_6949)"/>
<rect x="4.46033" y="7.89191" width="35.5534" height="23.3776" rx="4" fill="url(#paint1_linear_1_6949)"/>
<rect x="4.46033" y="38.0879" width="35.5534" height="5.35736" rx="1" fill="#FFE8DB"/>
<rect x="4.46033" y="46.3675" width="35.5534" height="2.43516" rx="1" fill="#FFE8DB"/>
<rect x="12.7399" y="51.7249" width="18.9943" height="1.94813" rx="0.974065" fill="#FFE8DB"/>
<rect x="14.244" width="41.8848" height="55.0347" rx="6" transform="rotate(15 14.244 0)" fill="url(#paint2_linear_1_6949)"/>
<rect x="16.6547" y="4.17542" width="35.5534" height="23.3776" rx="4" transform="rotate(15 16.6547 4.17542)" fill="url(#paint3_linear_1_6949)"/>
<rect x="8.83943" y="33.3425" width="35.5534" height="5.35736" rx="1" transform="rotate(15 8.83943 33.3425)" fill="#FFE8DB"/>
<rect x="6.6965" y="41.34" width="35.5534" height="2.43516" rx="1" transform="rotate(15 6.6965 41.34)" fill="#FFE8DB"/>
<rect x="13.3074" y="48.6577" width="18.9943" height="1.94813" rx="0.974065" transform="rotate(15 13.3074 48.6577)" fill="#FFE8DB"/>
<circle cx="53.6506" cy="15.1974" r="11.2017" fill="white"/>
<path fill-rule="evenodd" clip-rule="evenodd" d="M49.6374 9.95695C50.1108 9.48359 50.8783 9.48359 51.3516 9.95695L59.3781 17.9834C59.8515 18.4568 59.8515 19.2242 59.3781 19.6976C58.9047 20.171 58.1373 20.171 57.6639 19.6976L49.6374 11.6712C49.1641 11.1978 49.1641 10.4303 49.6374 9.95695Z" fill="#FF4646"/>
<path fill-rule="evenodd" clip-rule="evenodd" d="M59.3781 10.21C59.8514 10.6834 59.8514 11.4509 59.3781 11.9242L51.3516 19.9507C50.8783 20.4241 50.1108 20.4241 49.6374 19.9507C49.1641 19.4773 49.1641 18.7099 49.6374 18.2365L57.6639 10.21C58.1372 9.73668 58.9047 9.73668 59.3781 10.21Z" fill="#FF4646"/>
<defs>
<linearGradient id="paint0_linear_1_6949" x1="41.9619" y1="5.45673" x2="1.53817" y2="59.5173" gradientUnits="userSpaceOnUse">
<stop stop-color="#9AB0FF"/>
<stop offset="1" stop-color="#3551B6"/>
</linearGradient>
<linearGradient id="paint1_linear_1_6949" x1="41.9618" y1="7.89191" x2="4.94736" y2="31.2695" gradientUnits="userSpaceOnUse">
<stop stop-color="#AE92FF"/>
<stop offset="1" stop-color="#1D1396"/>
</linearGradient>
<linearGradient id="paint2_linear_1_6949" x1="55.1548" y1="0.974065" x2="14.7311" y2="55.0347" gradientUnits="userSpaceOnUse">
<stop stop-color="#FFECCF"/>
<stop offset="1" stop-color="#F17921"/>
</linearGradient>
<linearGradient id="paint3_linear_1_6949" x1="54.1562" y1="4.17541" x2="17.1417" y2="27.553" gradientUnits="userSpaceOnUse">
<stop stop-color="#FF9F92"/>
<stop offset="1" stop-color="#D64424"/>
</linearGradient>
</defs>
</svg>
