<svg width="40" height="40" viewBox="0 0 40 40" fill="none" xmlns="http://www.w3.org/2000/svg">
<rect width="40" height="40" rx="6" fill="white"/>
<g clip-path="url(#clip0_1_6730)">
<path d="M17.575 17.5C17.7709 16.9431 18.1576 16.4734 18.6666 16.1743C19.1756 15.8752 19.774 15.7658 20.3559 15.8656C20.9378 15.9654 21.4656 16.268 21.8459 16.7196C22.2261 17.1713 22.4342 17.743 22.4333 18.3334C22.4333 20 19.9333 20.8334 19.9333 20.8334M20 24.1667H20.0083M28.3333 20C28.3333 24.6024 24.6023 28.3334 20 28.3334C15.3976 28.3334 11.6666 24.6024 11.6666 20C11.6666 15.3976 15.3976 11.6667 20 11.6667C24.6023 11.6667 28.3333 15.3976 28.3333 20Z" stroke="#667085" stroke-width="2" stroke-linecap="round" stroke-linejoin="round"/>
</g>
<defs>
<clipPath id="clip0_1_6730">
<rect width="20" height="20" fill="white" transform="translate(10 10)"/>
</clipPath>
</defs>
</svg>
